<svg t="1706150641175" class="icon" viewBox="0 0 1024 1024" version="1.1"
    xmlns="http://www.w3.org/2000/svg" p-id="5352" width="200" height="200">
    <path
        d="M944.027 234.667q0 15.767-3.14 31.12-3.07 14.999-9.034 29.098-5.848 13.826-14.269 26.291-8.328 12.327-18.858 22.856-10.529 10.53-22.856 18.858-12.464 8.421-26.29 14.269-14.1 5.963-29.099 9.033-15.353 3.141-31.12 3.141-15.767 0-31.12-3.141-15-3.07-29.098-9.033-13.827-5.848-26.29-14.269-12.328-8.328-22.858-18.858-10.53-10.529-18.857-22.856-8.421-12.464-14.27-26.291-5.963-14.099-9.032-29.098-3.142-15.353-3.142-31.12 0-15.768 3.142-31.12 3.07-15 9.033-29.098 5.848-13.827 14.269-26.292 8.328-12.326 18.857-22.856 10.53-10.53 22.857-18.858 12.464-8.42 26.291-14.269 14.1-5.963 29.098-9.032Q773.594 80 789.361 80q15.767 0 31.12 3.142 15 3.069 29.097 9.032 13.827 5.849 26.292 14.27 12.326 8.327 22.856 18.857 10.53 10.53 18.858 22.856 8.421 12.465 14.27 26.292 5.962 14.099 9.032 29.098 3.141 15.352 3.141 31.12z m-96 0q0-11.968-4.59-22.821-4.45-10.52-12.593-18.663t-18.663-12.592Q801.328 176 789.361 176t-22.82 4.59q-10.52 4.45-18.663 12.593-8.144 8.143-12.593 18.663-4.59 10.853-4.59 22.821 0 11.967 4.59 22.82 4.45 10.52 12.593 18.663t18.662 12.593q10.854 4.59 22.821 4.59 11.967 0 22.82-4.59 10.52-4.45 18.663-12.593t12.593-18.663q4.59-10.853 4.59-22.82zM389.361 170.68q0 27.095-10.498 51.914-10.125 23.936-28.555 42.367-18.43 18.43-42.367 28.555-24.819 10.498-51.913 10.498-27.095 0-51.915-10.498-23.936-10.125-42.366-28.555t-28.555-42.367q-10.498-24.819-10.498-51.914 0-27.094 10.498-51.914Q143.316 94.83 161.747 76.4q18.43-18.43 42.367-28.555 24.819-10.498 51.914-10.498 27.094 0 51.913 10.498 23.936 10.124 42.367 28.554 18.43 18.431 28.555 42.367 10.498 24.82 10.498 51.914z m-96 0q0-7.627-2.914-14.516-2.83-6.692-8.02-11.882-5.192-5.19-11.883-8.02-6.89-2.915-14.516-2.915-7.628 0-14.517 2.914-6.692 2.83-11.882 8.02-5.19 5.191-8.02 11.882-2.915 6.89-2.915 14.517t2.914 14.517q2.83 6.691 8.021 11.882 5.19 5.19 11.882 8.021 6.89 2.914 14.517 2.914t14.516-2.914q6.691-2.83 11.882-8.02 5.19-5.192 8.021-11.883 2.914-6.89 2.914-14.517zM848.027 896.014V597.347q0-19.914-5.339-36.43-4.738-14.655-13.106-24.857-15.349-18.713-40.22-18.713-24.873 0-40.223 18.713-8.368 10.202-13.106 24.858-5.339 16.515-5.339 36.43v128q0 1.313-0.072 2.626-0.072 1.312-0.216 2.62-0.143 1.305-0.358 2.602t-0.5 2.58q-0.286 1.283-0.642 2.548-0.355 1.266-0.779 2.51-0.424 1.244-0.916 2.463-0.49 1.22-1.049 2.41-0.557 1.19-1.179 2.348t-1.306 2.28q-0.684 1.122-1.429 2.206-0.745 1.083-1.548 2.123-0.802 1.041-1.66 2.036-0.859 0.996-1.77 1.942-0.913 0.947-1.875 1.843-0.962 0.895-1.972 1.737l-128 106.666q-0.905 0.755-1.846 1.464-0.941 0.71-1.916 1.371-0.975 0.662-1.981 1.275-1.006 0.613-2.041 1.177-1.035 0.563-2.097 1.075-1.06 0.511-2.146 0.971-1.085 0.46-2.192 0.864-1.106 0.405-2.231 0.756-1.125 0.35-2.266 0.645-1.14 0.295-2.295 0.534-1.154 0.238-2.318 0.42-1.164 0.181-2.336 0.306-1.172 0.124-2.348 0.191-1.177 0.066-2.355 0.075-1.178 0.01-2.356-0.04-1.177-0.049-2.35-0.155-1.174-0.107-2.34-0.27-1.168-0.165-2.325-0.387-1.157-0.22-2.302-0.499-1.146-0.277-2.276-0.61-1.13-0.334-2.242-0.723-1.113-0.389-2.205-0.83-1.092-0.444-2.16-0.94-1.07-0.496-2.113-1.043-1.043-0.548-2.058-1.146-1.016-0.598-2-1.246-0.985-0.647-1.937-1.342-0.951-0.694-1.868-1.435-0.916-0.74-1.795-1.525-0.88-0.785-1.719-1.612-0.84-0.827-1.637-1.694-0.798-0.867-1.552-1.772-0.755-0.906-1.464-1.847-0.709-0.94-1.37-1.916-0.663-0.975-1.276-1.98-0.613-1.007-1.177-2.042-0.563-1.035-1.075-2.096-0.511-1.062-0.97-2.147-0.46-1.085-0.865-2.19-0.405-1.108-0.756-2.233-0.35-1.125-0.645-2.266-0.295-1.14-0.534-2.295-0.238-1.154-0.42-2.318-0.181-1.164-0.306-2.336-0.124-1.17-0.19-2.348-0.067-1.176-0.076-2.355-0.01-1.178 0.04-2.355 0.049-1.178 0.155-2.35 0.107-1.175 0.271-2.34 0.164-1.168 0.386-2.326 0.22-1.157 0.499-2.302 0.277-1.145 0.61-2.275 0.334-1.13 0.723-2.243 0.389-1.112 0.831-2.204 0.443-1.092 0.939-2.16 0.496-1.07 1.043-2.114 0.548-1.043 1.146-2.058 0.598-1.015 1.246-2 0.647-0.985 1.342-1.936 0.694-0.952 1.435-1.869 0.74-0.916 1.525-1.795 0.785-0.879 1.612-1.718 0.827-0.84 1.694-1.638 0.867-0.798 1.773-1.552l128-106.667 30.728 36.875h-48v-128q0-35.046 9.994-65.96 10.33-31.953 30.227-56.21 10.29-12.543 22.72-22.415 12.752-10.128 27.333-17.108 14.81-7.089 31.008-10.694 16.238-3.613 33.385-3.613 17.146 0 33.384 3.613 16.2 3.605 31.008 10.694 14.581 6.98 27.334 17.108 12.431 9.872 22.72 22.415 19.896 24.257 30.226 56.21 9.994 30.914 9.994 65.96V896.014q0 1.178-0.057 2.355-0.058 1.177-0.174 2.35-0.115 1.172-0.288 2.338-0.173 1.165-0.403 2.321-0.23 1.156-0.516 2.3-0.287 1.142-0.629 2.27-0.342 1.127-0.739 2.236-0.397 1.11-0.848 2.198-0.45 1.09-0.954 2.154-0.504 1.065-1.06 2.105-0.555 1.04-1.16 2.05-0.607 1.01-1.26 1.99-0.656 0.98-1.358 1.926-0.702 0.947-1.449 1.858-0.748 0.91-1.539 1.783-0.79 0.874-1.625 1.707-0.833 0.833-1.706 1.624-0.873 0.792-1.784 1.54-0.91 0.747-1.857 1.45-0.947 0.701-1.926 1.355-0.98 0.655-1.99 1.261-1.01 0.605-2.05 1.161-1.04 0.555-2.105 1.06-1.065 0.503-2.154 0.954-1.089 0.451-2.198 0.848-1.109 0.397-2.237 0.74-1.128 0.341-2.27 0.627-1.144 0.286-2.299 0.516-1.156 0.23-2.322 0.403-1.165 0.173-2.338 0.29-1.172 0.114-2.349 0.172-1.177 0.058-2.356 0.058-1.178 0-2.355-0.058t-2.349-0.173q-1.173-0.116-2.339-0.289-1.165-0.173-2.32-0.403-1.157-0.23-2.3-0.516-1.143-0.286-2.27-0.628-1.128-0.342-2.237-0.739-1.11-0.397-2.198-0.848-1.089-0.45-2.154-0.955-1.065-0.504-2.105-1.059-1.039-0.556-2.05-1.16-1.01-0.607-1.99-1.262t-1.926-1.356q-0.947-0.702-1.858-1.45-0.91-0.747-1.783-1.539-0.874-0.79-1.707-1.624-0.833-0.833-1.624-1.707-0.792-0.873-1.539-1.783-0.748-0.91-1.45-1.858-0.702-0.946-1.356-1.926-0.655-0.98-1.26-1.99-0.606-1.01-1.162-2.05-0.555-1.04-1.059-2.105-0.504-1.065-0.955-2.154-0.45-1.088-0.848-2.198-0.397-1.109-0.739-2.237-0.342-1.127-0.628-2.27t-0.516-2.299q-0.23-1.156-0.403-2.32-0.173-1.167-0.289-2.34-0.115-1.172-0.173-2.349-0.058-1.177-0.058-2.355z m96 0q0 1.178-0.057 2.355-0.058 1.177-0.174 2.35-0.115 1.172-0.288 2.338-0.173 1.165-0.403 2.321-0.23 1.156-0.516 2.3-0.287 1.142-0.629 2.27-0.342 1.127-0.739 2.236-0.397 1.11-0.848 2.198-0.45 1.09-0.954 2.154-0.504 1.065-1.06 2.105-0.555 1.04-1.16 2.05-0.607 1.01-1.26 1.99-0.656 0.98-1.358 1.926-0.702 0.947-1.449 1.858-0.748 0.91-1.539 1.783-0.79 0.874-1.625 1.707-0.833 0.833-1.706 1.624-0.873 0.792-1.784 1.54-0.91 0.747-1.857 1.45-0.947 0.701-1.926 1.355-0.98 0.655-1.99 1.261-1.01 0.605-2.05 1.161-1.04 0.555-2.105 1.06-1.065 0.503-2.154 0.954-1.089 0.451-2.198 0.848-1.109 0.397-2.237 0.74-1.128 0.341-2.27 0.627-1.144 0.286-2.299 0.516-1.156 0.23-2.322 0.403-1.165 0.173-2.338 0.29-1.172 0.114-2.349 0.172-1.177 0.058-2.356 0.058-1.178 0-2.355-0.058t-2.349-0.173q-1.173-0.116-2.339-0.289-1.165-0.173-2.32-0.403-1.157-0.23-2.3-0.516-1.143-0.286-2.27-0.628-1.128-0.342-2.237-0.739-1.11-0.397-2.198-0.848-1.089-0.45-2.154-0.955-1.065-0.504-2.105-1.059-1.039-0.556-2.05-1.16-1.01-0.607-1.99-1.262t-1.926-1.356q-0.947-0.702-1.858-1.45-0.91-0.747-1.783-1.539-0.874-0.79-1.707-1.624-0.833-0.833-1.624-1.707-0.792-0.873-1.539-1.783-0.748-0.91-1.45-1.858-0.702-0.946-1.356-1.926-0.655-0.98-1.26-1.99-0.606-1.01-1.162-2.05-0.555-1.04-1.059-2.105-0.504-1.065-0.955-2.154-0.45-1.088-0.848-2.198-0.397-1.109-0.739-2.237-0.342-1.127-0.628-2.27t-0.516-2.299q-0.23-1.156-0.403-2.32-0.173-1.167-0.289-2.34-0.115-1.172-0.173-2.349-0.058-1.177-0.058-2.355 0-1.179 0.058-2.356 0.058-1.177 0.173-2.349 0.116-1.173 0.29-2.338 0.172-1.166 0.402-2.322 0.23-1.155 0.516-2.298 0.286-1.143 0.628-2.27 0.342-1.129 0.74-2.238 0.396-1.11 0.847-2.198 0.451-1.089 0.955-2.154t1.06-2.104q0.555-1.04 1.16-2.05 0.606-1.01 1.261-1.99 0.654-0.98 1.356-1.927 0.702-0.946 1.45-1.857 0.747-0.91 1.54-1.784 0.79-0.873 1.623-1.707 0.833-0.833 1.707-1.624 0.873-0.79 1.783-1.539 0.911-0.747 1.858-1.449 0.946-0.702 1.926-1.357t1.99-1.26q1.011-0.606 2.05-1.162 1.04-0.555 2.105-1.059 1.065-0.504 2.154-0.955 1.088-0.45 2.198-0.847 1.11-0.397 2.237-0.739 1.127-0.343 2.27-0.629t2.3-0.516q1.155-0.23 2.32-0.403 1.166-0.173 2.34-0.288 1.171-0.116 2.348-0.174 1.177-0.057 2.355-0.057 1.18 0 2.356 0.057 1.177 0.058 2.35 0.174 1.172 0.115 2.337 0.288 1.166 0.173 2.322 0.403 1.155 0.23 2.298 0.516 1.143 0.286 2.271 0.63 1.128 0.341 2.237 0.738 1.11 0.396 2.198 0.847 1.09 0.451 2.154 0.955 1.065 0.504 2.104 1.06 1.04 0.555 2.05 1.161 1.011 0.605 1.991 1.26 0.98 0.655 1.926 1.357t1.857 1.45q0.911 0.747 1.784 1.538t1.706 1.624q0.834 0.834 1.625 1.707 0.791 0.873 1.54 1.784 0.746 0.911 1.448 1.857t1.357 1.926q0.654 0.98 1.26 1.991 0.606 1.01 1.161 2.05 0.556 1.04 1.06 2.104 0.504 1.065 0.955 2.154 0.45 1.088 0.847 2.198 0.397 1.11 0.74 2.237 0.341 1.128 0.628 2.271 0.286 1.143 0.516 2.298 0.23 1.156 0.403 2.322 0.173 1.165 0.288 2.338 0.116 1.172 0.174 2.35 0.057 1.176 0.057 2.355z m-341.333-64q0 1.178-0.057 2.355-0.058 1.177-0.174 2.35-0.115 1.172-0.288 2.338-0.173 1.165-0.403 2.321-0.23 1.156-0.516 2.3-0.286 1.142-0.629 2.27-0.342 1.127-0.739 2.236-0.397 1.11-0.847 2.198-0.451 1.09-0.955 2.154-0.504 1.065-1.06 2.105-0.555 1.04-1.16 2.05-0.606 1.01-1.261 1.99-0.655 0.98-1.357 1.926-0.702 0.947-1.45 1.858-0.747 0.91-1.538 1.783-0.791 0.874-1.625 1.707-0.833 0.833-1.706 1.624-0.873 0.792-1.784 1.54-0.91 0.747-1.857 1.45-0.947 0.701-1.926 1.355-0.98 0.655-1.99 1.261-1.011 0.605-2.05 1.161-1.04 0.555-2.105 1.06-1.065 0.503-2.154 0.954-1.088 0.451-2.198 0.848-1.11 0.397-2.237 0.74-1.128 0.341-2.27 0.627-1.144 0.286-2.3 0.516-1.155 0.23-2.32 0.403-1.166 0.173-2.339 0.29-1.173 0.114-2.35 0.172-1.176 0.058-2.355 0.058-1.178 0-2.355-0.058t-2.35-0.173q-1.172-0.116-2.338-0.289-1.165-0.173-2.321-0.403-1.156-0.23-2.299-0.516-1.143-0.286-2.27-0.628-1.128-0.342-2.237-0.739-1.11-0.397-2.198-0.848-1.09-0.45-2.154-0.955-1.065-0.504-2.105-1.059-1.039-0.556-2.05-1.16-1.01-0.607-1.99-1.262-0.98-0.654-1.926-1.356-0.947-0.702-1.858-1.45-0.91-0.747-1.783-1.539-0.874-0.79-1.707-1.624-0.833-0.833-1.624-1.707-0.792-0.873-1.54-1.783-0.747-0.91-1.449-1.858-0.702-0.946-1.356-1.926-0.655-0.98-1.26-1.99-0.606-1.01-1.162-2.05-0.555-1.04-1.06-2.105-0.503-1.065-0.954-2.154-0.45-1.088-0.848-2.198-0.397-1.109-0.739-2.237-0.342-1.127-0.628-2.27t-0.516-2.299q-0.23-1.156-0.403-2.32-0.173-1.167-0.289-2.34-0.115-1.172-0.173-2.349-0.058-1.177-0.058-2.355 0-1.179 0.058-2.356 0.058-1.177 0.173-2.349 0.116-1.173 0.289-2.338 0.173-1.166 0.403-2.322 0.23-1.155 0.516-2.298 0.286-1.143 0.628-2.27 0.342-1.129 0.74-2.238 0.396-1.11 0.847-2.198 0.451-1.089 0.955-2.154t1.06-2.104q0.555-1.04 1.16-2.05 0.606-1.01 1.26-1.99 0.655-0.98 1.357-1.927 0.702-0.946 1.45-1.857 0.747-0.91 1.539-1.784 0.791-0.873 1.624-1.707 0.833-0.833 1.707-1.624 0.873-0.79 1.783-1.539 0.911-0.747 1.858-1.449 0.946-0.702 1.926-1.357t1.99-1.26q1.011-0.606 2.05-1.162 1.04-0.555 2.105-1.059 1.065-0.504 2.154-0.955 1.088-0.45 2.198-0.847 1.109-0.397 2.237-0.739 1.127-0.343 2.27-0.629t2.299-0.516q1.156-0.23 2.321-0.403 1.166-0.173 2.339-0.288 1.172-0.116 2.35-0.174 1.176-0.057 2.354-0.057 1.179 0 2.356 0.057 1.176 0.058 2.35 0.174 1.172 0.115 2.337 0.288 1.166 0.173 2.322 0.403 1.155 0.23 2.298 0.516 1.143 0.286 2.271 0.63 1.128 0.341 2.237 0.738 1.11 0.396 2.198 0.847 1.089 0.451 2.154 0.955t2.104 1.06q1.04 0.555 2.05 1.161 1.01 0.605 1.99 1.26t1.927 1.357q0.946 0.702 1.857 1.45 0.911 0.747 1.784 1.538t1.706 1.624q0.834 0.834 1.625 1.707 0.791 0.873 1.539 1.784 0.747 0.911 1.45 1.857 0.701 0.946 1.356 1.926 0.655 0.98 1.26 1.991 0.606 1.01 1.162 2.05 0.555 1.04 1.059 2.104 0.504 1.065 0.955 2.154 0.45 1.088 0.847 2.198 0.397 1.11 0.74 2.237 0.342 1.128 0.628 2.271t0.516 2.298q0.23 1.156 0.403 2.322 0.173 1.165 0.288 2.338 0.116 1.172 0.174 2.35 0.057 1.176 0.057 2.355z"
        fill="#1296db" p-id="5353"></path>
    <path
        d="M122.694 896V512q0-35.046 9.994-65.96 10.33-31.953 30.228-56.21 10.288-12.543 22.719-22.415 12.752-10.128 27.334-17.108 14.808-7.09 31.008-10.694Q260.214 336 277.36 336q17.146 0 33.384 3.613 16.2 3.605 31.008 10.694 14.581 6.98 27.334 17.108 12.431 9.872 22.72 22.415 19.896 24.257 30.226 56.21 9.994 30.914 9.994 65.96v85.333h-48l30.73-36.874 128 106.666q0.904 0.755 1.772 1.553 0.867 0.797 1.694 1.637 0.826 0.839 1.611 1.718t1.526 1.796q0.74 0.916 1.435 1.868 0.695 0.952 1.342 1.936 0.647 0.985 1.246 2 0.598 1.015 1.145 2.059 0.548 1.043 1.044 2.112 0.496 1.069 0.938 2.161 0.443 1.092 0.832 2.204 0.388 1.113 0.722 2.243 0.333 1.13 0.611 2.275 0.278 1.145 0.5 2.303 0.22 1.157 0.384 2.324 0.164 1.167 0.271 2.34 0.107 1.174 0.156 2.351 0.05 1.177 0.04 2.356-0.009 1.178-0.076 2.354-0.066 1.177-0.19 2.349-0.125 1.171-0.306 2.336-0.182 1.164-0.42 2.318-0.239 1.154-0.534 2.295-0.295 1.14-0.646 2.265-0.35 1.125-0.755 2.232-0.406 1.106-0.865 2.192-0.459 1.085-0.97 2.146-0.512 1.062-1.076 2.097-0.563 1.035-1.176 2.041-0.614 1.006-1.276 1.981-0.662 0.974-1.37 1.916-0.71 0.941-1.464 1.846-0.754 0.905-1.552 1.772t-1.638 1.694q-0.839 0.827-1.718 1.612-0.879 0.785-1.796 1.525-0.916 0.741-1.868 1.436-0.95 0.695-1.936 1.342-0.985 0.647-2 1.245-1.015 0.598-2.058 1.146-1.044 0.548-2.113 1.043-1.069 0.496-2.16 0.939-1.093 0.443-2.205 0.831-1.112 0.389-2.243 0.722-1.13 0.334-2.275 0.612-1.145 0.278-2.302 0.499-1.158 0.221-2.325 0.385-1.166 0.164-2.34 0.271-1.173 0.107-2.35 0.155-1.178 0.049-2.356 0.041-1.179-0.009-2.355-0.076-1.177-0.067-2.348-0.191-1.172-0.124-2.336-0.306-1.165-0.181-2.319-0.42-1.153-0.239-2.294-0.534-1.14-0.294-2.266-0.645-1.125-0.35-2.232-0.756-1.106-0.405-2.19-0.864-1.086-0.459-2.148-0.971-1.06-0.512-2.096-1.075-1.035-0.563-2.04-1.177-1.007-0.613-1.982-1.275-0.975-0.662-1.916-1.371-0.94-0.709-1.847-1.463l-128-106.667q-1.009-0.842-1.97-1.737-0.964-0.895-1.875-1.842-0.912-0.947-1.77-1.942-0.859-0.996-1.662-2.036-0.803-1.041-1.548-2.124-0.744-1.083-1.429-2.206-0.684-1.122-1.306-2.28-0.62-1.158-1.179-2.348-0.557-1.191-1.049-2.41-0.492-1.219-0.916-2.463-0.424-1.244-0.779-2.509-0.355-1.266-0.64-2.549-0.287-1.283-0.502-2.58-0.215-1.296-0.358-2.603-0.144-1.306-0.216-2.619-0.072-1.312-0.072-2.627V512q0-19.914-5.339-36.43-4.738-14.655-13.106-24.857Q302.233 432 277.362 432q-24.873 0-40.222 18.713-8.368 10.202-13.106 24.857-5.34 16.516-5.34 36.43v384q0 1.178-0.057 2.355-0.058 1.177-0.174 2.35-0.115 1.172-0.288 2.338-0.173 1.166-0.403 2.321-0.23 1.156-0.516 2.299-0.286 1.143-0.629 2.271-0.342 1.127-0.739 2.237-0.397 1.109-0.847 2.198-0.451 1.088-0.955 2.154-0.504 1.065-1.06 2.104-0.555 1.039-1.16 2.05-0.606 1.011-1.261 1.99-0.655 0.98-1.357 1.927-0.702 0.946-1.45 1.857-0.747 0.911-1.538 1.784t-1.625 1.706q-0.833 0.833-1.706 1.625-0.873 0.791-1.784 1.538-0.91 0.748-1.857 1.45t-1.926 1.356q-0.98 0.655-1.99 1.261-1.011 0.606-2.05 1.161-1.04 0.556-2.105 1.059-1.065 0.504-2.154 0.955-1.088 0.451-2.198 0.848-1.11 0.397-2.237 0.739-1.128 0.342-2.27 0.628-1.144 0.287-2.3 0.517-1.155 0.23-2.32 0.402-1.166 0.173-2.339 0.289-1.173 0.115-2.35 0.173-1.176 0.058-2.355 0.058-1.178 0-2.355-0.058t-2.35-0.173q-1.172-0.116-2.338-0.289-1.165-0.172-2.321-0.402-1.156-0.23-2.299-0.517-1.143-0.286-2.27-0.628-1.128-0.342-2.237-0.739-1.11-0.397-2.198-0.848-1.09-0.451-2.154-0.955-1.065-0.503-2.105-1.059-1.039-0.555-2.05-1.161-1.01-0.606-1.99-1.261-0.98-0.654-1.926-1.356-0.947-0.702-1.858-1.45-0.91-0.747-1.783-1.538-0.874-0.792-1.707-1.625-0.833-0.833-1.624-1.706-0.792-0.873-1.54-1.784-0.747-0.911-1.449-1.857-0.702-0.947-1.356-1.927-0.655-0.979-1.26-1.99-0.606-1.011-1.162-2.05-0.555-1.039-1.06-2.104-0.503-1.066-0.954-2.154-0.45-1.089-0.848-2.198-0.397-1.11-0.739-2.237-0.342-1.128-0.628-2.271t-0.516-2.299q-0.23-1.155-0.403-2.321-0.173-1.166-0.289-2.338-0.115-1.173-0.173-2.35-0.058-1.177-0.058-2.355z m96 0q0 1.178-0.057 2.355-0.058 1.177-0.174 2.35-0.115 1.172-0.288 2.338-0.173 1.166-0.403 2.321-0.23 1.156-0.516 2.299-0.286 1.143-0.629 2.271-0.342 1.127-0.739 2.237-0.397 1.109-0.847 2.198-0.451 1.088-0.955 2.154-0.504 1.065-1.06 2.104-0.555 1.039-1.16 2.05-0.606 1.011-1.261 1.99-0.655 0.98-1.357 1.927-0.702 0.946-1.45 1.857-0.747 0.911-1.538 1.784t-1.625 1.706q-0.833 0.833-1.706 1.625-0.873 0.791-1.784 1.538-0.91 0.748-1.857 1.45t-1.926 1.356q-0.98 0.655-1.99 1.261-1.011 0.606-2.05 1.161-1.04 0.556-2.105 1.059-1.065 0.504-2.154 0.955-1.088 0.451-2.198 0.848-1.11 0.397-2.237 0.739-1.128 0.342-2.27 0.628-1.144 0.287-2.3 0.517-1.155 0.23-2.32 0.402-1.166 0.173-2.339 0.289-1.173 0.115-2.35 0.173-1.176 0.058-2.355 0.058-1.178 0-2.355-0.058t-2.35-0.173q-1.172-0.116-2.338-0.289-1.165-0.172-2.321-0.402-1.156-0.23-2.299-0.517-1.143-0.286-2.27-0.628-1.128-0.342-2.237-0.739-1.11-0.397-2.198-0.848-1.09-0.451-2.154-0.955-1.065-0.503-2.105-1.059-1.039-0.555-2.05-1.161-1.01-0.606-1.99-1.261-0.98-0.654-1.926-1.356-0.947-0.702-1.858-1.45-0.91-0.747-1.783-1.538-0.874-0.792-1.707-1.625-0.833-0.833-1.624-1.706-0.792-0.873-1.54-1.784-0.747-0.911-1.449-1.857-0.702-0.947-1.356-1.927-0.655-0.979-1.26-1.99-0.606-1.011-1.162-2.05-0.555-1.039-1.06-2.104-0.503-1.066-0.954-2.154-0.45-1.089-0.848-2.198-0.397-1.11-0.739-2.237-0.342-1.128-0.628-2.271t-0.516-2.299q-0.23-1.155-0.403-2.321-0.173-1.166-0.289-2.338-0.115-1.173-0.173-2.35-0.058-1.177-0.058-2.355t0.058-2.355q0.058-1.177 0.173-2.35 0.116-1.173 0.289-2.338 0.173-1.166 0.403-2.321 0.23-1.156 0.516-2.299 0.286-1.143 0.628-2.271 0.342-1.127 0.74-2.237 0.396-1.109 0.847-2.198 0.451-1.089 0.955-2.154t1.06-2.104q0.555-1.039 1.16-2.05 0.606-1.011 1.26-1.99 0.655-0.98 1.357-1.927 0.702-0.946 1.45-1.857 0.747-0.911 1.539-1.784 0.791-0.873 1.624-1.706 0.833-0.833 1.707-1.625 0.873-0.791 1.783-1.539 0.911-0.747 1.858-1.449 0.946-0.702 1.926-1.357 0.98-0.654 1.99-1.26 1.011-0.606 2.05-1.161 1.04-0.556 2.105-1.059 1.065-0.504 2.154-0.955 1.088-0.451 2.198-0.848 1.109-0.397 2.237-0.739 1.127-0.342 2.27-0.628 1.143-0.287 2.299-0.517 1.156-0.23 2.321-0.402 1.166-0.173 2.339-0.289 1.172-0.115 2.35-0.173 1.176-0.058 2.354-0.058 1.179 0 2.356 0.058 1.176 0.058 2.35 0.173 1.172 0.116 2.337 0.289 1.166 0.172 2.322 0.402 1.155 0.23 2.298 0.517 1.143 0.286 2.271 0.628t2.237 0.739q1.11 0.397 2.198 0.848 1.089 0.451 2.154 0.954 1.065 0.504 2.104 1.06 1.04 0.555 2.05 1.161 1.01 0.606 1.99 1.26 0.98 0.655 1.927 1.357 0.946 0.702 1.857 1.449 0.911 0.748 1.784 1.539 0.873 0.792 1.706 1.625 0.834 0.833 1.625 1.706t1.539 1.784q0.747 0.911 1.45 1.857 0.701 0.947 1.356 1.927 0.655 0.979 1.26 1.99 0.606 1.011 1.162 2.05 0.555 1.039 1.059 2.104 0.504 1.065 0.955 2.154 0.45 1.089 0.847 2.198 0.397 1.11 0.74 2.237 0.342 1.128 0.628 2.271t0.516 2.299q0.23 1.155 0.403 2.321 0.173 1.165 0.288 2.338 0.116 1.173 0.174 2.35 0.057 1.177 0.057 2.355z m341.333-192q0 1.178-0.057 2.355-0.058 1.177-0.174 2.35-0.115 1.172-0.288 2.338-0.173 1.166-0.403 2.321-0.23 1.156-0.516 2.299-0.287 1.143-0.629 2.271-0.342 1.127-0.739 2.237-0.397 1.109-0.848 2.198-0.45 1.088-0.954 2.154-0.504 1.065-1.06 2.104-0.555 1.039-1.16 2.05-0.607 1.011-1.26 1.99-0.656 0.98-1.358 1.927-0.702 0.946-1.449 1.857-0.748 0.911-1.539 1.784-0.79 0.873-1.625 1.706-0.833 0.833-1.706 1.625-0.873 0.791-1.784 1.539-0.91 0.747-1.857 1.449-0.947 0.702-1.926 1.357-0.98 0.654-1.99 1.26t-2.05 1.161q-1.04 0.556-2.105 1.059-1.065 0.504-2.154 0.955-1.089 0.451-2.198 0.848-1.109 0.397-2.237 0.739-1.128 0.342-2.27 0.628-1.144 0.287-2.299 0.517-1.156 0.23-2.322 0.402-1.165 0.173-2.338 0.289-1.172 0.115-2.349 0.173-1.177 0.058-2.356 0.058-1.178 0-2.355-0.058t-2.349-0.173q-1.173-0.116-2.339-0.289-1.165-0.172-2.32-0.402-1.157-0.23-2.3-0.517-1.143-0.286-2.27-0.628-1.128-0.342-2.237-0.739-1.11-0.397-2.198-0.848-1.089-0.451-2.154-0.955-1.065-0.503-2.105-1.059-1.039-0.555-2.05-1.161-1.01-0.606-1.99-1.26-0.98-0.655-1.926-1.357-0.947-0.702-1.858-1.449-0.91-0.748-1.783-1.539-0.874-0.792-1.707-1.625-0.833-0.833-1.624-1.706-0.792-0.873-1.539-1.784-0.748-0.911-1.45-1.857-0.702-0.947-1.356-1.927-0.655-0.979-1.26-1.99-0.606-1.011-1.162-2.05-0.555-1.039-1.059-2.104-0.504-1.066-0.955-2.154-0.45-1.089-0.848-2.198-0.397-1.11-0.739-2.237-0.342-1.128-0.628-2.271t-0.516-2.299q-0.23-1.155-0.403-2.321-0.173-1.166-0.289-2.338-0.115-1.173-0.173-2.35-0.058-1.177-0.058-2.355t0.058-2.355q0.058-1.177 0.173-2.35 0.116-1.173 0.29-2.338 0.172-1.166 0.402-2.321 0.23-1.156 0.516-2.299 0.286-1.143 0.628-2.271 0.342-1.127 0.74-2.237 0.396-1.109 0.847-2.198 0.451-1.088 0.955-2.154 0.504-1.065 1.06-2.104 0.555-1.039 1.16-2.05 0.606-1.011 1.261-1.99 0.654-0.98 1.356-1.927 0.702-0.946 1.45-1.857 0.747-0.911 1.54-1.784 0.79-0.873 1.623-1.706t1.707-1.625q0.873-0.791 1.783-1.538 0.911-0.748 1.858-1.45 0.946-0.702 1.926-1.357 0.98-0.654 1.99-1.26 1.011-0.606 2.05-1.161 1.04-0.556 2.105-1.059 1.065-0.504 2.154-0.955 1.088-0.451 2.198-0.848 1.11-0.397 2.237-0.739 1.127-0.342 2.27-0.629 1.143-0.286 2.3-0.516 1.155-0.23 2.32-0.402 1.166-0.173 2.34-0.289 1.171-0.115 2.348-0.173 1.177-0.058 2.355-0.058 1.18 0 2.356 0.058 1.177 0.058 2.35 0.173 1.172 0.116 2.337 0.289 1.166 0.172 2.322 0.402 1.155 0.23 2.298 0.516 1.143 0.287 2.271 0.629t2.237 0.739q1.11 0.397 2.198 0.848 1.09 0.451 2.154 0.954 1.065 0.504 2.104 1.06 1.04 0.555 2.05 1.161 1.011 0.606 1.991 1.26 0.98 0.655 1.926 1.357t1.857 1.45q0.911 0.747 1.784 1.538 0.873 0.792 1.706 1.625 0.834 0.833 1.625 1.706t1.54 1.784q0.746 0.911 1.448 1.857 0.702 0.947 1.357 1.927 0.654 0.979 1.26 1.99 0.606 1.011 1.161 2.05 0.556 1.039 1.06 2.104 0.504 1.066 0.955 2.154 0.45 1.089 0.847 2.198 0.397 1.11 0.74 2.237 0.341 1.128 0.628 2.271 0.286 1.143 0.516 2.299 0.23 1.155 0.403 2.321 0.173 1.165 0.288 2.338 0.116 1.173 0.174 2.35 0.057 1.177 0.057 2.355z"
        fill="#1296db" p-id="5354"></path>
</svg>